HIERARCHY
ROOT hips
{
  OFFSET 0 10.6860622 2.3727825e-15
  CHANNELS 6 Xposition Yposition Zposition Yrotation Xrotation Zrotation
  JOINT leftUpperLeg
  {
    OFFSET 0.6642549969 -0.9402397400000004 0
    CHANNELS 3 Yrotation Xrotation Zrotation
    JOINT leftLowerLeg
    {
      OFFSET 0 -3.997221335632195 0
      CHANNELS 3 Yrotation Xrotation Zrotation
      JOINT leftFoot
      {
        OFFSET -0.13777839790000004 -4.6145792000000005 -0.22186036399999998
        CHANNELS 3 Yrotation Xrotation Zrotation
        JOINT leftToes
        {
          OFFSET -0.03777410834999995 -0.9130806927000008 0.85230013
          CHANNELS 3 Yrotation Xrotation Zrotation
          End Site
          {
            OFFSET -0.03777410834999995 -0.9130806927000008 0.85230013
          }
        }
      }
    }
  }
  JOINT rightUpperLeg
  {
    OFFSET -0.6642778626 -0.9402397400000004 0
    CHANNELS 3 Yrotation Xrotation Zrotation
    JOINT rightLowerLeg
    {
      OFFSET 0 -3.997221452859387 0
      CHANNELS 3 Yrotation Xrotation Zrotation
      JOINT rightFoot
      {
        OFFSET 0.1377926176 -4.6145792000000005 -0.22185782299999995
        CHANNELS 3 Yrotation Xrotation Zrotation
        JOINT rightToes
        {
          OFFSET 0.037780746850000047 -0.9130806927000008 0.85230167
          CHANNELS 3 Yrotation Xrotation Zrotation
          End Site
          {
            OFFSET 0.037780746850000047 -0.9130806927000008 0.85230167
          }
        }
      }
    }
  }
  JOINT spine
  {
    OFFSET 0 0.13988381660000015 0
    CHANNELS 3 Yrotation Xrotation Zrotation
    JOINT chest
    {
      OFFSET 0 0.6191039003973773 0
      CHANNELS 3 Yrotation Xrotation Zrotation
      JOINT upperChest
      {
        OFFSET 0 0.9855186130586943 0
        CHANNELS 3 Yrotation Xrotation Zrotation
        JOINT leftShoulder
        {
          OFFSET 0.1807663869 1.5087829790000005 0
          CHANNELS 3 Yrotation Xrotation Zrotation
          JOINT leftUpperArm
          {
            OFFSET 0.5985063006419806 0 0
            CHANNELS 3 Yrotation Xrotation Zrotation
            JOINT leftLowerArm
            {
              OFFSET 2.2993332369501065 0 0
              CHANNELS 3 Yrotation Xrotation Zrotation
              JOINT leftHand
              {
                OFFSET 2.395047042602395 0 0
                CHANNELS 3 Yrotation Xrotation Zrotation
                JOINT leftIndexProximal
                {
                  OFFSET 0.5766295810000004 0.04556643899499946 0.17265095988184
                  CHANNELS 3 Yrotation Xrotation Zrotation
                  JOINT leftIndexIntermediate
                  {
                    OFFSET 0.2957229000000008 -0.019352197700001517 -0.007932640616999987
                    CHANNELS 3 Yrotation Xrotation Zrotation
                    JOINT leftIndexDistal
                    {
                      OFFSET 0.19008243099999922 -0.012484908149998475 -0.002786250786000012
                      CHANNELS 3 Yrotation Xrotation Zrotation
                      End Site
                      {
                        OFFSET 0.19008243099999922 -0.012484908149998475 -0.002786250786000012
                      }
                    }
                  }
                }
                JOINT leftMiddleProximal
                {
                  OFFSET 0.5834975091000001 0.0524350405149987 0.02204081888183999
                  CHANNELS 3 Yrotation Xrotation Zrotation
                  JOINT leftMiddleIntermediate
                  {
                    OFFSET 0.33880573540000003 -0.019871473270000717 -0.00000971183179999946
                    CHANNELS 3 Yrotation Xrotation Zrotation
                    JOINT leftMiddleDistal
                    {
                      OFFSET 0.20676022730000088 -0.012221336379999448 0.0001471936708000235
                      CHANNELS 3 Yrotation Xrotation Zrotation
                      End Site
                      {
                        OFFSET 0.20676022730000088 -0.012221336379999448 0.0001471936708000235
                      }
                    }
                  }
                }
                JOINT leftLittleProximal
                {
                  OFFSET 0.5344154683999995 -0.012880921405001189 -0.24414037221816004
                  CHANNELS 3 Yrotation Xrotation Zrotation
                  JOINT leftLittleIntermediate
                  {
                    OFFSET 0.21758961730000093 -0.011650919939999227 0.011893592810000034
                    CHANNELS 3 Yrotation Xrotation Zrotation
                    JOINT leftLittleDistal
                    {
                      OFFSET 0.1475273964999999 -0.008152365682999818 0.006001092492999946
                      CHANNELS 3 Yrotation Xrotation Zrotation
                      End Site
                      {
                        OFFSET 0.1475273964999999 -0.008152365682999818 0.006001092492999946
                      }
                    }
                  }
                }
                JOINT leftRingProximal
                {
                  OFFSET 0.5799399463000003 0.026911854694997794 -0.12150566991816003
                  CHANNELS 3 Yrotation Xrotation Zrotation
                  JOINT leftRingIntermediate
                  {
                    OFFSET 0.26167887460000006 -0.013480186499999602 0.010996293000000053
                    CHANNELS 3 Yrotation Xrotation Zrotation
                    JOINT leftRingDistal
                    {
                      OFFSET 0.17667108799999987 -0.008990287899999228 0.0055541023999999065
                      CHANNELS 3 Yrotation Xrotation Zrotation
                      End Site
                      {
                        OFFSET 0.17667108799999987 -0.008990287899999228 0.0055541023999999065
                      }
                    }
                  }
                }
                JOINT leftThumbProximal
                {
                  OFFSET 0.11018806699999972 -0.09448718900500053 0.17047963138184
                  CHANNELS 3 Yrotation Xrotation Zrotation
                  JOINT leftThumbIntermediate
                  {
                    OFFSET 0.31062601459999983 -0.08126270900000132 0.15443142000000007
                    CHANNELS 3 Yrotation Xrotation Zrotation
                    JOINT leftThumbDistal
                    {
                      OFFSET 0.21627175790000086 -0.08833193599999878 0.018771167799999988
                      CHANNELS 3 Yrotation Xrotation Zrotation
                      End Site
                      {
                        OFFSET 0.21627175790000086 -0.08833193599999878 0.018771167799999988
                      }
                    }
                  }
                }
              }
            }
          }
        }
        JOINT neck
        {
          OFFSET 0 1.5463305265074576 0
          CHANNELS 3 Yrotation Xrotation Zrotation
          JOINT head
          {
            OFFSET 0 0.8456443600000344 0
            CHANNELS 3 Yrotation Xrotation Zrotation
            JOINT leftEye
            {
              OFFSET 0.30408573140000006 0.5104519199999995 0.1276382305
              CHANNELS 3 Yrotation Xrotation Zrotation
              End Site
              {
                OFFSET 0.30408573140000006 0.5104519199999995 0.1276382305
              }
            }
            JOINT rightEye
            {
              OFFSET -0.30409491089999996 0.5104519199999995 0.1276379445
              CHANNELS 3 Yrotation Xrotation Zrotation
              End Site
              {
                OFFSET -0.30409491089999996 0.5104519199999995 0.1276379445
              }
            }
            JOINT jaw
            {
              OFFSET -3.155239131000001e-7 -0.11984121820000082 0.60178107
              CHANNELS 3 Yrotation Xrotation Zrotation
              End Site
              {
                OFFSET -3.155239131000001e-7 -0.11984121820000082 0.60178107
              }
            }
          }
        }
        JOINT rightShoulder
        {
          OFFSET -0.1807303465 1.5087829790000005 0
          CHANNELS 3 Yrotation Xrotation Zrotation
          JOINT rightUpperArm
          {
            OFFSET -0.5985063796536958 0 0
            CHANNELS 3 Yrotation Xrotation Zrotation
            JOINT rightLowerArm
            {
              OFFSET -2.2993322059002854 0 0
              CHANNELS 3 Yrotation Xrotation Zrotation
              JOINT rightHand
              {
                OFFSET -2.395045314457259 0 0
                CHANNELS 3 Yrotation Xrotation Zrotation
                JOINT rightIndexProximal
                {
                  OFFSET -0.5764487688300002 0.0441371204405987 0.17361932004999997
                  CHANNELS 3 Yrotation Xrotation Zrotation
                  JOINT rightIndexIntermediate
                  {
                    OFFSET -0.29573011380000047 -0.01934826376999843 -0.007698921482999974
                    CHANNELS 3 Yrotation Xrotation Zrotation
                    JOINT rightIndexDistal
                    {
                      OFFSET -0.19008373999999884 -0.012503266380000655 -0.0026365778999999897
                      CHANNELS 3 Yrotation Xrotation Zrotation
                      End Site
                      {
                        OFFSET -0.19008373999999884 -0.012503266380000655 -0.0026365778999999897
                      }
                    }
                  }
                }
                JOINT rightMiddleProximal
                {
                  OFFSET -0.5834852037300005 0.05211639405060153 0.02307162440000001
                  CHANNELS 3 Yrotation Xrotation Zrotation
                  JOINT rightMiddleIntermediate
                  {
                    OFFSET -0.33880114510000003 -0.019952774050000954 0.0002455003561999819
                    CHANNELS 3 Yrotation Xrotation Zrotation
                    JOINT rightMiddleDistal
                    {
                      OFFSET -0.20675694929999955 -0.012273788999999091 0.00030209124000002766
                      CHANNELS 3 Yrotation Xrotation Zrotation
                      End Site
                      {
                        OFFSET -0.20675694929999955 -0.012273788999999091 0.00030209124000002766
                      }
                    }
                  }
                }
                JOINT rightLittleProximal
                {
                  OFFSET -0.5346811737299992 -0.011214256288399227 -0.24363941305000003
                  CHANNELS 3 Yrotation Xrotation Zrotation
                  JOINT rightLittleIntermediate
                  {
                    OFFSET -0.21757715980000092 -0.011771559690000988 0.01201554387
                    CHANNELS 3 Yrotation Xrotation Zrotation
                    JOINT rightLittleDistal
                    {
                      OFFSET -0.1475201849000004 -0.00822055339600003 0.006082065407000015
                      CHANNELS 3 Yrotation Xrotation Zrotation
                      End Site
                      {
                        OFFSET -0.1475201849000004 -0.00822055339600003 0.006082065407000015
                      }
                    }
                  }
                }
                JOINT rightRingProximal
                {
                  OFFSET -0.5800810755299999 0.027657985680600072 -0.12066365025000003
                  CHANNELS 3 Yrotation Xrotation Zrotation
                  JOINT rightRingIntermediate
                  {
                    OFFSET -0.26166445029999974 -0.013623118409999302 0.011164098990000045
                    CHANNELS 3 Yrotation Xrotation Zrotation
                    JOINT rightRingDistal
                    {
                      OFFSET -0.17666387530000027 -0.009072900100000503 0.005668185599999959
                      CHANNELS 3 Yrotation Xrotation Zrotation
                      End Site
                      {
                        OFFSET -0.17666387530000027 -0.009072900100000503 0.005668185599999959
                      }
                    }
                  }
                }
                JOINT rightThumbProximal
                {
                  OFFSET -0.10997596379000074 -0.09577489355940072 0.16989765924999997
                  CHANNELS 3 Yrotation Xrotation Zrotation
                  JOINT rightThumbIntermediate
                  {
                    OFFSET -0.31036620999999986 -0.08229339117999834 0.15440884469999996
                    CHANNELS 3 Yrotation Xrotation Zrotation
                    JOINT rightThumbDistal
                    {
                      OFFSET -0.21631306399999906 -0.08825326400000111 0.018656797720000014
                      CHANNELS 3 Yrotation Xrotation Zrotation
                      End Site
                      {
                        OFFSET -0.21631306399999906 -0.08825326400000111 0.018656797720000014
                      }
                    }
                  }
                }
              }
            }
          }
        }
      }
    }
  }
}
MOTION
Frames: 7
Frame Time: 0.03333333333333333
0 11.682712981546562 0 0 0 0 0 0 -5.826343164929014 -0.3712483961610101 -3.6333298826370974 5.838118207697276 0 0 0 0 0 0 0 0 5.826343164929014 0.3712483961610101 -3.6333298826370974 -5.838118207697276 0 0 0 0 0 0 0 -4.610651315171937 0 0 3.0831277533083026 0 0 0 0 0 1.5275236235667615 0 0 0 0 0 0 0 0 0 0 0 0 0 0 0 0 0 0 0 0 0 0 0 0 0 0 0 0 0 0 0 0 0 0 0 0 0 0 0 0 0 0 0 0 0 0 0 0 0 0 0 0 0 0 0 0 1.5275236235667615 0 0 0 0 0 0 0 0 0 0 0 0 0 0 1.5275236235667615 0 0 0 0 0 0 0 0 0 0 0 0 0 0 0 0 0 0 0 0 0 0 0 0 0 0 0 0 0 0 0 0 0 0 0 0 0 0 0 0 0 0 0 0 0 0 0 0 0 0 0 0 0 0 0
0 -10.610138021295173 -9.663680052545965 0 -90 0 -28.05701386160081 -33.29896867752259 46.375794963944124 139.02331496468548 81.11999787245549 136.38981640450572 2.042693585259591 18.74281659951874 5.168146115409327 0 0 0 28.195150051222182 -33.16174413777263 -46.22164609339038 -138.99973681937544 81.1166578584693 -136.36638745908607 -2.1762118918231246 18.790349408867765 -4.929879669720151 0 0 0 0 19.802151486998756 0 -0.6764942311894596 19.96998627619595 -0.3682570361465522 0 0 0 9.180234036345471 2.812167153975499 0.9941455182873329 6.830867456436674 29.54776212288646 -74.89746175747247 -75.0028340956554 33.99848356936599 -0.002516125636215149 -3.0335842963782618 23.91940713385405 -8.233390994360729 0 0 0 0 0 0 0 0 0 0 0 0 0 0 0 0 0 0 0 0 0 0 0 0 0 0 0 0 0 0 0 0 0 0 0 0 0 0 0 0 0 0 0 0 0 0 19.13885247935177 0 0 8.519946329129374 0 0 0 0 0 0 0 0 0 0 -9.378453732608502 2.8361183409465247 -1.1345851045437956 -6.816822844766624 29.57643321080423 75.10126670514475 74.84172319497247 33.99931978627597 -0.16185271126089942 3.1961396137648443 24.049392188680002 8.346017448923206 0 0 0 0 0 0 0 0 0 0 0 0 0 0 0 0 0 0 0 0 0 0 0 0 0 0 0 0 0 0 0 0 0 0 0 0 0 0 0 0 0 0 0 0 0
0 -10.610138021295173 -9.663680052545965 0 -90 0 -28.336705705926537 -33.07215446914266 46.113472169913756 139.02331078901844 81.11999787245549 136.38981239989266 2.2614182351065524 18.8161872599857 4.740863796568806 0 0 0 28.61625003692324 -32.798522545767426 -45.80097974748118 -138.99973681937544 81.1166578584693 -136.36638745908607 -2.523484829176646 18.913798720252373 -4.260205376799609 0 0 0 0 20.67715406566894 0 -0.6668985536653723 17.596222084529266 -0.33869202278509386 0 0 0 9.74733345890414 3.7758399234775837 1.1072067147927145 6.853703104481479 29.500943945727418 -74.63651367492686 -75.00284304833056 33.998487688640935 -0.0025197445137589243 -3.222045697229866 24.400239065924392 -8.835046300166237 0 0 0 0 0 0 0 0 0 0 0 0 0 0 0 0 0 0 0 0 0 0 0 0 0 0 0 0 0 0 0 0 0 0 0 0 0 0 0 0 0 0 0 0 0 0 18.751421539172025 0 0 8.040673157190179 0 0 0 0 0 0 0 0 0 0 -10.143120001906913 3.8219955996961152 -1.3883501765026727 -6.817636084225371 29.55727833359578 75.0641939872925 74.68612643165353 33.99757321450235 -0.3216390249673702 3.5556036889472242 24.657702650103307 9.068523857044111 0 0 0 0 0 0 0 0 0 0 0 0 0 0 0 0 0 0 0 0 0 0 0 0 0 0 0 0 0 0 0 0 0 0 0 0 0 0 0 0 0 0 0 0 0
0 -10.610138021295173 -9.663680052545965 0 -90 0 -28.616989263022052 -32.84633808731183 45.850409697792095 139.02331078901844 81.11999787245549 136.38981239989266 2.479724864325808 18.891118573597304 4.313556340367036 0 0 0 29.038869912689798 -32.43782682443198 -45.37874891295246 -138.99973681937544 81.1166578584693 -136.36638745908607 -2.8695468761747915 19.041109117997276 -3.5906815853374843 0 0 0 0 21.55235348280332 0 -0.6586761642312426 15.218362430553016 -0.3098490099162997 0 0 0 10.317271718850614 4.738713941396467 1.2300234821449043 6.87628703906091 29.454033665510668 -74.37569136545035 -75.00284304833056 33.998487688640935 -0.002518538197736347 -3.4168190731660717 24.879311539259973 -9.440854779583315 0 0 0 0 0 0 0 0 0 0 0 0 0 0 0 0 0 0 0 0 0 0 0 0 0 0 0 0 0 0 0 0 0 0 0 0 0 0 0 0 0 0 0 0 0 0 18.36357534956357 0 0 7.560759906270824 0 0 0 0 0 0 0 0 0 0 -10.913529077066729 4.804869082676342 -1.6557590567894618 -6.818368883531889 29.538209517951962 75.02728636342457 74.53049790270134 33.995455956303445 -0.48141621958140773 3.925387709816082 25.26195915461053 9.798983895458022 0 0 0 0 0 0 0 0 0 0 0 0 0 0 0 0 0 0 0 0 0 0 0 0 0 0 0 0 0 0 0 0 0 0 0 0 0 0 0 0 0 0 0 0 0
0 -10.610138021295173 -9.663680052545965 0 -90 0 -29.179332893361906 -32.39781231092222 45.32218930373582 139.02331078901844 81.11999787245549 136.38981239989266 2.9149989663662383 19.045655848957384 3.4589478094789694 0 0 0 29.888594180454405 -31.724309961097358 -44.52984449820492 -138.99973681937544 81.1166578584693 -136.36638745908607 -3.5577233291914885 19.30718329187433 -2.2523950105999466 0 0 0 0 23.30296974250525 0 -0.6460937880731494 10.458522484536914 -0.25394267606497983 0 0 0 11.466544280476077 6.660919006108405 1.5052434288447991 6.920688079094454 29.35994697699992 -73.85442206778082 -75.00284304833056 33.998487688640935 -0.0025197445137589243 -3.8255509618518775 25.831748972766423 -10.665208135193067 0 0 0 0 0 0 0 0 0 0 0 0 0 0 0 0 0 0 0 0 0 0 0 0 0 0 0 0 0 0 0 0 0 0 0 0 0 0 0 0 0 0 0 0 0 0 17.586692278606886 0 0 6.599088876329093 0 0 0 0 0 0 0 0 0 0 -12.472662480442494 6.759817199904164 -2.231948148220474 -6.819886502117402 29.499943374422543 74.95326616615031 74.21931596782412 33.99016304162822 -0.8009491174983341 4.696396432116983 26.457428300395303 11.284305482348037 0 0 0 0 0 0 0 0 0 0 0 0 0 0 0 0 0 0 0 0 0 0 0 0 0 0 0 0 0 0 0 0 0 0 0 0 0 0 0 0 0 0 0 0 0
0 -10.610138021295173 -9.663680052545965 0 -90 0 -29.46136502254413 -32.17513303898458 45.05701407387396 139.0233452442612 81.11999787245549 136.38984272935193 3.131927092852315 19.1252447423902 3.031687613363221 0 0 0 30.31560589854769 -31.371616354652016 -44.10323052189804 -138.99976792353706 81.1166578584693 -136.36641597918558 -3.899683336719103 19.445874680291617 -1.5837860624137972 0 0 0 0 24.178168801181357 0 -0.641631392754171 8.080654233518597 -0.22670369515330233 0 0 0 12.046331147846592 7.619671643034821 1.6578192134620238 6.942510228122197 29.312762918280736 -73.59397695439748 -75.00284198238113 33.998487688640935 -0.002518538197736347 -4.039632607850004 26.304906364934105 -11.28389139693404 0 0 0 0 0 0 0 0 0 0 0 0 0 0 0 0 0 0 0 0 0 0 0 0 0 0 0 0 0 0 0 0 0 0 0 0 0 0 0 0 0 0 0 0 0 0 17.197666170193322 0 0 6.117360073922082 0 0 0 0 0 0 0 0 0 0 -13.261930280335166 7.730990201478847 -2.540956587817544 -6.820673755859496 29.480738244758584 74.91613659308788 74.06374646621188 33.986975094915124 -0.9606965051231837 5.09785967141722 27.04820008728506 12.03944181438566 0 0 0 0 0 0 0 0 0 0 0 0 0 0 0 0 0 0 0 0 0 0 0 0 0 0 0 0 0 0 0 0 0 0 0 0 0 0 0 0 0 0 0 0 0
0 -10.610138021295173 -9.663680052545965 0 -90 0 -29.743967695477167 -31.95353626030812 44.79119104951383 139.02331078901844 81.11999787245549 136.38981239989266 3.3483563150408098 19.20637097635195 2.604483661792185 0 0 0 30.743992288489178 -31.021720025400246 -43.67521207359851 -138.99973681937544 81.1166578584693 -136.36638745908607 -4.2401243171069325 19.588291414293032 -0.9156367243993546 0 0 0 0 25.053167293975623 0 -0.63833138673755 5.706873969754582 -0.19983399538664628 0 0 0 12.629854707987933 8.576473404515244 1.8204974280393083 6.964070371168454 29.265498882534573 -73.33367065541009 -75.00284304833056 33.998487688640935 -0.0025197445137589243 -4.260267521169709 26.77586432231701 -11.90699643242096 0 0 0 0 0 0 0 0 0 0 0 0 0 0 0 0 0 0 0 0 0 0 0 0 0 0 0 0 0 0 0 0 0 0 0 0 0 0 0 0 0 0 0 0 0 0 16.808271482195522 0 0 5.63505606824875 0 0 0 0 0 0 0 0 0 0 -14.058025131565428 8.697358075724518 -2.864062851884485 -6.821382061320276 29.46162696667538 74.87918039741673 73.90816939160818 33.98342483505721 -1.1204296575967037 5.510103829176954 27.63401098615978 12.803055337881608 0 0 0 0 0 0 0 0 0 0 0 0 0 0 0 0 0 0 0 0 0 0 0 0 0 0 0 0 0 0 0 0 0 0 0 0 0 0 0 0 0 0 0 0 0
